<svg xmlns="http://www.w3.org/2000/svg" xmlns:xlink="http://www.w3.org/1999/xlink" width="2000" zoomAndPan="magnify" viewBox="0 0 1500 1499.999933" height="2000" preserveAspectRatio="xMidYMid meet" version="1.0"><defs><g/><clipPath id="a14df31fba"><path d="M 261.8125 294.914062 L 1172 294.914062 L 1172 1205.414062 L 261.8125 1205.414062 Z M 261.8125 294.914062 " clip-rule="nonzero"/></clipPath><clipPath id="1491c3e9b2"><rect x="0" width="381" y="0" height="115"/></clipPath></defs><g clip-path="url(#a14df31fba)"><path fill="#0046ff" d="M 1171.984375 750 C 1171.984375 757.445312 1171.800781 764.890625 1171.433594 772.328125 C 1171.070312 779.765625 1170.519531 787.191406 1169.792969 794.605469 C 1169.0625 802.015625 1168.148438 809.40625 1167.058594 816.773438 C 1165.964844 824.140625 1164.691406 831.476562 1163.238281 838.78125 C 1161.785156 846.085938 1160.152344 853.351562 1158.34375 860.574219 C 1156.535156 867.800781 1154.546875 874.976562 1152.386719 882.101562 C 1150.226562 889.230469 1147.890625 896.300781 1145.378906 903.3125 C 1142.871094 910.324219 1140.191406 917.269531 1137.339844 924.152344 C 1134.492188 931.03125 1131.472656 937.839844 1128.289062 944.574219 C 1125.105469 951.304688 1121.757812 957.957031 1118.246094 964.523438 C 1114.734375 971.09375 1111.066406 977.570312 1107.238281 983.960938 C 1103.40625 990.347656 1099.425781 996.636719 1095.285156 1002.832031 C 1091.148438 1009.023438 1086.863281 1015.109375 1082.425781 1021.09375 C 1077.988281 1027.074219 1073.40625 1032.945312 1068.683594 1038.703125 C 1063.957031 1044.457031 1059.09375 1050.097656 1054.09375 1055.617188 C 1049.089844 1061.132812 1043.957031 1066.527344 1038.691406 1071.792969 C 1033.425781 1077.058594 1028.03125 1082.191406 1022.511719 1087.195312 C 1016.996094 1092.195312 1011.355469 1097.058594 1005.601562 1101.785156 C 999.84375 1106.507812 993.972656 1111.089844 987.992188 1115.527344 C 982.007812 1119.964844 975.921875 1124.25 969.730469 1128.386719 C 963.535156 1132.527344 957.246094 1136.507812 950.855469 1140.339844 C 944.46875 1144.167969 937.992188 1147.835938 931.421875 1151.347656 C 924.855469 1154.859375 918.203125 1158.207031 911.472656 1161.390625 C 904.738281 1164.574219 897.929688 1167.59375 891.050781 1170.441406 C 884.167969 1173.292969 877.222656 1175.972656 870.210938 1178.480469 C 863.199219 1180.992188 856.128906 1183.328125 849 1185.488281 C 841.875 1187.648438 834.699219 1189.636719 827.472656 1191.445312 C 820.25 1193.253906 812.984375 1194.886719 805.679688 1196.339844 C 798.375 1197.792969 791.039062 1199.066406 783.671875 1200.160156 C 776.304688 1201.25 768.914062 1202.164062 761.503906 1202.894531 C 754.089844 1203.621094 746.664062 1204.171875 739.226562 1204.535156 C 731.789062 1204.902344 724.34375 1205.085938 716.898438 1205.085938 C 709.449219 1205.085938 702.003906 1204.902344 694.566406 1204.535156 C 687.128906 1204.171875 679.703125 1203.621094 672.289062 1202.894531 C 664.878906 1202.164062 657.488281 1201.25 650.121094 1200.160156 C 642.753906 1199.066406 635.417969 1197.792969 628.113281 1196.339844 C 620.808594 1194.886719 613.542969 1193.253906 606.320312 1191.445312 C 599.09375 1189.636719 591.917969 1187.652344 584.792969 1185.488281 C 577.664062 1183.328125 570.59375 1180.992188 563.582031 1178.480469 C 556.570312 1175.972656 549.625 1173.292969 542.742188 1170.441406 C 535.863281 1167.59375 529.054688 1164.574219 522.324219 1161.390625 C 515.589844 1158.207031 508.9375 1154.859375 502.371094 1151.347656 C 495.800781 1147.835938 489.324219 1144.167969 482.9375 1140.339844 C 476.546875 1136.507812 470.257812 1132.527344 464.0625 1128.386719 C 457.871094 1124.25 451.785156 1119.964844 445.800781 1115.527344 C 439.820312 1111.089844 433.949219 1106.507812 428.191406 1101.785156 C 422.4375 1097.058594 416.796875 1092.195312 411.28125 1087.195312 C 405.761719 1082.191406 400.367188 1077.058594 395.101562 1071.792969 C 389.835938 1066.527344 384.703125 1061.132812 379.699219 1055.617188 C 374.699219 1050.097656 369.835938 1044.457031 365.109375 1038.703125 C 360.386719 1032.945312 355.804688 1027.074219 351.367188 1021.09375 C 346.929688 1015.109375 342.644531 1009.023438 338.507812 1002.832031 C 334.367188 996.636719 330.386719 990.347656 326.554688 983.960938 C 322.726562 977.570312 319.058594 971.09375 315.546875 964.523438 C 312.035156 957.957031 308.6875 951.304688 305.503906 944.574219 C 302.320312 937.839844 299.300781 931.03125 296.453125 924.152344 C 293.601562 917.269531 290.921875 910.324219 288.414062 903.3125 C 285.902344 896.300781 283.570312 889.230469 281.40625 882.101562 C 279.246094 874.976562 277.257812 867.800781 275.449219 860.574219 C 273.640625 853.351562 272.007812 846.085938 270.554688 838.78125 C 269.101562 831.476562 267.828125 824.140625 266.734375 816.773438 C 265.644531 809.40625 264.730469 802.015625 264.003906 794.605469 C 263.273438 787.191406 262.722656 779.765625 262.359375 772.328125 C 261.992188 764.890625 261.8125 757.445312 261.8125 750 C 261.8125 742.550781 261.992188 735.105469 262.359375 727.667969 C 262.722656 720.230469 263.273438 712.804688 264.003906 705.390625 C 264.730469 697.980469 265.644531 690.589844 266.734375 683.222656 C 267.828125 675.855469 269.101562 668.519531 270.554688 661.214844 C 272.007812 653.910156 273.640625 646.644531 275.449219 639.421875 C 277.257812 632.195312 279.246094 625.019531 281.40625 617.894531 C 283.570312 610.765625 285.902344 603.695312 288.414062 596.683594 C 290.921875 589.671875 293.601562 582.726562 296.453125 575.84375 C 299.300781 568.964844 302.320312 562.15625 305.503906 555.425781 C 308.6875 548.691406 312.035156 542.039062 315.546875 535.472656 C 319.058594 528.902344 322.726562 522.425781 326.554688 516.039062 C 330.386719 509.648438 334.367188 503.359375 338.507812 497.167969 C 342.644531 490.972656 346.929688 484.886719 351.367188 478.902344 C 355.804688 472.921875 360.386719 467.050781 365.109375 461.292969 C 369.835938 455.539062 374.699219 449.898438 379.699219 444.382812 C 384.703125 438.863281 389.835938 433.46875 395.101562 428.203125 C 400.367188 422.9375 405.761719 417.804688 411.28125 412.800781 C 416.796875 407.800781 422.4375 402.9375 428.191406 398.210938 C 433.949219 393.488281 439.820312 388.90625 445.800781 384.46875 C 451.785156 380.035156 457.871094 375.746094 464.0625 371.609375 C 470.257812 367.46875 476.546875 363.488281 482.9375 359.65625 C 489.324219 355.828125 495.800781 352.160156 502.371094 348.648438 C 508.9375 345.136719 515.589844 341.789062 522.324219 338.605469 C 529.054688 335.421875 535.863281 332.402344 542.742188 329.554688 C 549.625 326.703125 556.570312 324.023438 563.582031 321.515625 C 570.59375 319.003906 577.664062 316.671875 584.792969 314.507812 C 591.917969 312.347656 599.09375 310.359375 606.320312 308.550781 C 613.542969 306.742188 620.808594 305.109375 628.113281 303.65625 C 635.417969 302.203125 642.753906 300.929688 650.121094 299.839844 C 657.488281 298.746094 664.878906 297.832031 672.289062 297.105469 C 679.703125 296.375 687.128906 295.824219 694.566406 295.460938 C 702.003906 295.09375 709.449219 294.914062 716.898438 294.914062 C 724.34375 294.914062 731.789062 295.09375 739.226562 295.460938 C 746.664062 295.824219 754.089844 296.375 761.503906 297.105469 C 768.914062 297.832031 776.304688 298.746094 783.671875 299.839844 C 791.039062 300.929688 798.375 302.203125 805.679688 303.65625 C 812.984375 305.109375 820.25 306.742188 827.472656 308.550781 C 834.699219 310.359375 841.875 312.347656 849 314.507812 C 856.128906 316.671875 863.199219 319.003906 870.210938 321.515625 C 877.222656 324.023438 884.167969 326.703125 891.050781 329.554688 C 897.929688 332.402344 904.738281 335.421875 911.472656 338.605469 C 918.203125 341.789062 924.855469 345.136719 931.421875 348.648438 C 937.992188 352.160156 944.46875 355.828125 950.855469 359.65625 C 957.246094 363.488281 963.535156 367.46875 969.730469 371.609375 C 975.921875 375.746094 982.007812 380.035156 987.992188 384.46875 C 993.972656 388.90625 999.84375 393.488281 1005.601562 398.210938 C 1011.355469 402.9375 1016.996094 407.800781 1022.511719 412.800781 C 1028.03125 417.804688 1033.425781 422.9375 1038.691406 428.203125 C 1043.957031 433.46875 1049.089844 438.863281 1054.09375 444.382812 C 1059.09375 449.898438 1063.957031 455.539062 1068.683594 461.292969 C 1073.40625 467.050781 1077.988281 472.921875 1082.425781 478.902344 C 1086.863281 484.886719 1091.148438 490.972656 1095.285156 497.167969 C 1099.425781 503.359375 1103.40625 509.648438 1107.238281 516.039062 C 1111.066406 522.425781 1114.734375 528.902344 1118.246094 535.472656 C 1121.757812 542.039062 1125.105469 548.691406 1128.289062 555.425781 C 1131.472656 562.15625 1134.492188 568.964844 1137.339844 575.84375 C 1140.191406 582.726562 1142.871094 589.671875 1145.378906 596.683594 C 1147.890625 603.695312 1150.222656 610.765625 1152.386719 617.894531 C 1154.546875 625.019531 1156.535156 632.195312 1158.34375 639.421875 C 1160.152344 646.644531 1161.785156 653.910156 1163.238281 661.214844 C 1164.691406 668.519531 1165.964844 675.855469 1167.058594 683.222656 C 1168.148438 690.589844 1169.0625 697.980469 1169.792969 705.390625 C 1170.519531 712.804688 1171.070312 720.230469 1171.433594 727.667969 C 1171.800781 735.105469 1171.984375 742.550781 1171.984375 750 Z M 1171.984375 750 " fill-opacity="1" fill-rule="nonzero"/></g><path fill="#ffffff" d="M 747.046875 642.484375 L 747.046875 641.726562 C 747.046875 639.070312 744.960938 636.984375 742.117188 636.984375 C 739.273438 636.984375 737.375 639.070312 737.375 641.726562 L 737.375 647.226562 L 742.117188 647.226562 C 744.960938 647.226562 747.046875 645.140625 747.046875 642.484375 Z M 747.046875 642.484375 " fill-opacity="1" fill-rule="nonzero"/><path fill="#ffffff" d="M 968.519531 745.828125 L 968.519531 977.730469 C 968.519531 980.007812 967.382812 982.28125 965.488281 983.796875 C 963.589844 985.125 961.125 985.695312 958.851562 984.9375 C 941.59375 979.628906 923.582031 975.835938 905.566406 973.558594 C 879.398438 970.335938 835.597656 964.835938 787.054688 982.660156 C 769.800781 988.917969 753.492188 997.640625 738.324219 1008.640625 L 986.914062 1008.640625 L 986.914062 745.828125 Z M 968.519531 745.828125 " fill-opacity="1" fill-rule="nonzero"/><path fill="#ffffff" d="M 638.203125 533.832031 C 639.722656 535.730469 641.808594 536.675781 644.082031 536.675781 C 645.789062 536.675781 647.304688 536.109375 648.632812 534.96875 C 651.855469 532.316406 652.425781 527.765625 649.769531 524.542969 L 627.394531 496.289062 C 624.742188 493.0625 620.191406 492.496094 616.96875 495.148438 C 613.742188 497.804688 613.175781 502.355469 615.828125 505.578125 Z M 638.203125 533.832031 " fill-opacity="1" fill-rule="nonzero"/><path fill="#ffffff" d="M 561.976562 583.132812 L 596.679688 595.457031 C 597.4375 595.839844 598.382812 595.839844 599.144531 595.839844 C 602.175781 595.839844 605.019531 593.941406 606.160156 590.90625 C 607.488281 586.925781 605.589844 582.753906 601.609375 581.425781 L 566.90625 569.101562 C 562.925781 567.773438 558.753906 569.671875 557.425781 573.652344 C 556.097656 577.632812 557.996094 581.804688 561.976562 583.132812 Z M 561.976562 583.132812 " fill-opacity="1" fill-rule="nonzero"/><path fill="#ffffff" d="M 716.898438 512.027344 C 721.066406 512.027344 724.292969 508.613281 724.292969 504.632812 L 724.292969 466.328125 C 724.292969 462.15625 720.878906 458.933594 716.898438 458.933594 C 712.914062 458.933594 709.5 462.347656 709.5 466.328125 L 709.5 504.632812 C 709.5 508.613281 712.726562 512.027344 716.898438 512.027344 Z M 716.898438 512.027344 " fill-opacity="1" fill-rule="nonzero"/><path fill="#ffffff" d="M 834.648438 595.839844 C 835.410156 595.839844 836.355469 595.648438 837.113281 595.457031 L 871.816406 583.132812 C 875.609375 581.804688 877.695312 577.445312 876.367188 573.652344 C 875.039062 569.859375 870.675781 567.773438 866.886719 569.101562 L 832.183594 581.425781 C 828.394531 582.753906 826.308594 587.117188 827.632812 590.90625 C 828.582031 593.941406 831.617188 595.839844 834.648438 595.839844 Z M 834.648438 595.839844 " fill-opacity="1" fill-rule="nonzero"/><path fill="#ffffff" d="M 785.160156 534.96875 C 786.488281 536.109375 788.195312 536.675781 789.710938 536.675781 C 791.984375 536.675781 794.070312 535.730469 795.589844 533.832031 L 817.964844 505.578125 C 820.617188 502.355469 820.050781 497.617188 816.824219 495.148438 C 813.601562 492.496094 808.863281 493.0625 806.398438 496.289062 L 784.023438 524.542969 C 781.367188 527.765625 781.9375 532.503906 785.160156 534.96875 Z M 785.160156 534.96875 " fill-opacity="1" fill-rule="nonzero"/><path fill="#ffffff" d="M 691.488281 636.796875 C 688.832031 636.796875 686.558594 638.882812 686.558594 641.535156 L 686.558594 642.292969 C 686.558594 644.949219 688.644531 647.035156 691.488281 647.035156 L 696.226562 647.035156 L 696.226562 641.535156 C 696.417969 639.070312 694.332031 636.796875 691.488281 636.796875 Z M 691.488281 636.796875 " fill-opacity="1" fill-rule="nonzero"/><path fill="#ffffff" d="M 674.800781 746.394531 L 674.800781 756.445312 C 674.800781 758.339844 676.316406 760.046875 678.402344 760.046875 L 755.390625 760.046875 C 757.285156 760.046875 758.992188 758.53125 758.992188 756.445312 L 758.992188 746.394531 C 758.992188 744.5 757.476562 742.792969 755.390625 742.792969 L 730.167969 742.792969 C 730.167969 742.792969 729.980469 742.792969 729.980469 742.792969 C 729.980469 742.792969 729.789062 742.792969 729.789062 742.792969 L 704.191406 742.792969 C 704.191406 742.792969 704.003906 742.792969 704.003906 742.792969 C 704.003906 742.792969 703.8125 742.792969 703.8125 742.792969 L 678.59375 742.792969 C 676.316406 742.792969 674.800781 744.5 674.800781 746.394531 Z M 674.800781 746.394531 " fill-opacity="1" fill-rule="nonzero"/><path fill="#ffffff" d="M 711.398438 662.203125 L 722.585938 662.203125 L 722.585938 728.003906 L 711.398438 728.003906 Z M 711.398438 662.203125 " fill-opacity="1" fill-rule="nonzero"/><path fill="#ffffff" d="M 665.128906 680.40625 C 675.371094 689.890625 681.25 703.351562 681.25 717.382812 L 681.25 728.003906 L 696.417969 728.003906 L 696.417969 662.203125 L 691.675781 662.203125 C 680.867188 662.203125 671.957031 653.292969 671.957031 642.484375 L 671.957031 641.726562 C 671.957031 630.917969 680.867188 622.003906 691.675781 622.003906 C 702.484375 622.003906 711.398438 630.917969 711.398438 641.726562 L 711.398438 647.226562 L 722.585938 647.226562 L 722.585938 641.726562 C 722.585938 630.917969 731.496094 622.003906 742.304688 622.003906 C 753.113281 622.003906 762.027344 630.917969 762.027344 641.726562 L 762.027344 642.484375 C 762.027344 653.292969 753.113281 662.203125 742.304688 662.203125 L 737.566406 662.203125 L 737.566406 728.003906 L 752.734375 728.003906 L 752.734375 717.382812 C 752.734375 703.542969 758.613281 690.078125 768.851562 680.40625 C 784.210938 665.996094 793.125 645.898438 793.125 624.851562 C 793.125 582.945312 758.992188 549.003906 717.277344 549.003906 C 675.371094 549.003906 641.429688 583.132812 641.429688 624.851562 C 641.050781 645.898438 649.769531 666.1875 665.128906 680.40625 Z M 665.128906 680.40625 " fill-opacity="1" fill-rule="nonzero"/><path fill="#ffffff" d="M 701.539062 795.886719 L 732.253906 795.886719 C 739.652344 795.886719 745.527344 789.816406 745.527344 782.613281 L 745.527344 776.355469 C 745.527344 775.976562 745.527344 775.597656 745.71875 775.21875 L 688.074219 775.21875 C 688.074219 775.597656 688.265625 775.976562 688.265625 776.355469 L 688.265625 782.613281 C 688.265625 790.007812 694.140625 795.886719 701.539062 795.886719 Z M 701.539062 795.886719 " fill-opacity="1" fill-rule="nonzero"/><path fill="#ffffff" d="M 798.621094 723.074219 C 798.621094 723.074219 798.433594 723.074219 798.433594 723.074219 L 769.230469 734.261719 C 772.074219 737.484375 773.78125 741.84375 773.78125 746.394531 L 773.78125 756.445312 C 773.78125 764.976562 768.09375 772.183594 760.128906 774.269531 C 760.320312 774.839844 760.320312 775.40625 760.320312 776.164062 L 760.320312 782.421875 C 760.320312 797.972656 747.613281 810.675781 732.066406 810.675781 L 724.101562 810.675781 L 724.101562 1000.296875 C 741.925781 986.644531 761.265625 976.023438 781.558594 968.628906 C 833.511719 949.476562 879.589844 955.167969 907.085938 958.578125 C 922.632812 960.476562 938.183594 963.507812 953.351562 967.679688 L 953.351562 709.417969 C 920.738281 702.214844 887.933594 701.265625 855.507812 706.574219 C 836.355469 709.800781 817.015625 715.296875 798.621094 723.074219 Z M 798.621094 723.074219 " fill-opacity="1" fill-rule="nonzero"/><path fill="#ffffff" d="M 651.855469 968.628906 C 672.335938 976.214844 691.488281 986.832031 709.3125 1000.296875 L 709.3125 810.675781 L 701.347656 810.675781 C 685.800781 810.675781 673.09375 797.972656 673.09375 782.421875 L 673.09375 776.164062 C 673.09375 775.597656 673.09375 774.839844 673.285156 774.269531 C 665.511719 772.183594 659.632812 764.976562 659.632812 756.445312 L 659.632812 746.394531 C 659.632812 741.65625 661.527344 737.292969 664.371094 733.878906 L 634.980469 723.074219 C 634.792969 723.074219 634.792969 723.074219 634.601562 722.882812 C 616.207031 715.109375 597.058594 709.609375 577.527344 706.386719 C 545.101562 701.078125 512.296875 702.023438 479.683594 709.230469 L 479.683594 967.679688 C 494.851562 963.507812 510.210938 960.476562 525.949219 958.578125 C 553.824219 955.355469 599.902344 949.476562 651.855469 968.628906 Z M 651.855469 968.628906 " fill-opacity="1" fill-rule="nonzero"/><path fill="#ffffff" d="M 679.351562 1027.222656 C 679.351562 1034.996094 685.609375 1041.253906 693.382812 1041.253906 L 740.410156 1041.253906 C 748.183594 1041.253906 754.441406 1034.996094 754.441406 1027.222656 L 754.441406 1023.429688 L 679.351562 1023.429688 Z M 679.351562 1027.222656 " fill-opacity="1" fill-rule="nonzero"/><path fill="#ffffff" d="M 646.738281 982.660156 C 598.195312 964.835938 554.394531 970.335938 528.226562 973.558594 C 510.210938 975.835938 492.199219 979.628906 474.941406 984.9375 C 472.667969 985.695312 470.203125 985.125 468.304688 983.796875 C 466.410156 982.472656 465.273438 980.195312 465.273438 977.730469 L 465.273438 745.828125 L 446.878906 745.828125 L 446.878906 1008.640625 L 695.46875 1008.640625 C 680.300781 997.640625 663.992188 988.917969 646.738281 982.660156 Z M 646.738281 982.660156 " fill-opacity="1" fill-rule="nonzero"/><g transform="matrix(1, 0, 0, 1, 526, 1056)"><g clip-path="url(#1491c3e9b2)"><g fill="#ff751f" fill-opacity="1"><g transform="translate(1.031199, 82.446188)"><g><path d="M 33.0625 -76.296875 C 37.113281 -76.296875 41.078125 -75.703125 44.953125 -74.515625 C 48.828125 -73.335938 51.707031 -72.175781 53.59375 -71.03125 L 56.3125 -69.21875 L 49.40625 -55.59375 C 48.863281 -55.945312 48.109375 -56.410156 47.140625 -56.984375 C 46.171875 -57.566406 44.351562 -58.34375 41.6875 -59.3125 C 39.019531 -60.28125 36.539062 -60.765625 34.25 -60.765625 C 31.394531 -60.765625 29.195312 -60.15625 27.65625 -58.9375 C 26.113281 -57.726562 25.34375 -56.097656 25.34375 -54.046875 C 25.34375 -53.015625 25.703125 -52.054688 26.421875 -51.171875 C 27.148438 -50.296875 28.390625 -49.359375 30.140625 -48.359375 C 31.898438 -47.367188 33.445312 -46.566406 34.78125 -45.953125 C 36.113281 -45.347656 38.175781 -44.441406 40.96875 -43.234375 C 45.8125 -41.171875 49.941406 -38.367188 53.359375 -34.828125 C 56.785156 -31.285156 58.5 -27.273438 58.5 -22.796875 C 58.5 -18.492188 57.722656 -14.738281 56.171875 -11.53125 C 54.628906 -8.320312 52.507812 -5.804688 49.8125 -3.984375 C 47.125 -2.171875 44.144531 -0.828125 40.875 0.046875 C 37.601562 0.921875 34.0625 1.359375 30.25 1.359375 C 26.976562 1.359375 23.765625 1.023438 20.609375 0.359375 C 17.460938 -0.304688 14.828125 -1.140625 12.703125 -2.140625 C 10.585938 -3.140625 8.679688 -4.125 6.984375 -5.09375 C 5.296875 -6.0625 4.054688 -6.875 3.265625 -7.53125 L 2.09375 -8.53125 L 10.625 -22.890625 C 11.351562 -22.285156 12.351562 -21.515625 13.625 -20.578125 C 14.894531 -19.640625 17.148438 -18.378906 20.390625 -16.796875 C 23.628906 -15.222656 26.488281 -14.4375 28.96875 -14.4375 C 36.175781 -14.4375 39.78125 -16.890625 39.78125 -21.796875 C 39.78125 -22.828125 39.519531 -23.78125 39 -24.65625 C 38.488281 -25.539062 37.582031 -26.421875 36.28125 -27.296875 C 34.976562 -28.171875 33.828125 -28.863281 32.828125 -29.375 C 31.828125 -29.894531 30.191406 -30.679688 27.921875 -31.734375 C 25.660156 -32.796875 23.984375 -33.601562 22.890625 -34.15625 C 18.347656 -36.394531 14.832031 -39.191406 12.34375 -42.546875 C 9.863281 -45.910156 8.625 -49.53125 8.625 -53.40625 C 8.625 -60.125 11.109375 -65.617188 16.078125 -69.890625 C 21.046875 -74.160156 26.707031 -76.296875 33.0625 -76.296875 Z M 33.0625 -76.296875 "/></g></g></g><g fill="#ff751f" fill-opacity="1"><g transform="translate(62.063041, 82.446188)"><g><path d="M 8.171875 -46.59375 L 8.171875 -63.9375 L 24.25 -63.9375 L 24.25 -46.59375 L 34.0625 -46.59375 L 34.0625 -34.328125 L 24.25 -34.328125 L 24.25 -19.53125 C 24.25 -15.226562 25.460938 -13.078125 27.890625 -13.078125 C 28.492188 -13.078125 29.128906 -13.195312 29.796875 -13.4375 C 30.460938 -13.6875 30.972656 -13.929688 31.328125 -14.171875 L 31.875 -14.53125 L 35.875 -1.546875 C 32.425781 0.390625 28.488281 1.359375 24.0625 1.359375 C 21.039062 1.359375 18.4375 0.832031 16.25 -0.21875 C 14.070312 -1.28125 12.421875 -2.703125 11.296875 -4.484375 C 10.179688 -6.273438 9.378906 -8.15625 8.890625 -10.125 C 8.410156 -12.09375 8.171875 -14.195312 8.171875 -16.4375 L 8.171875 -34.328125 L 1.453125 -34.328125 L 1.453125 -46.59375 Z M 8.171875 -46.59375 "/></g></g></g><g fill="#ff751f" fill-opacity="1"><g transform="translate(97.937412, 82.446188)"><g><path d="M 20.625 -46.59375 L 20.625 -24.4375 C 20.625 -19.832031 21.316406 -16.5625 22.703125 -14.625 C 24.097656 -12.6875 26.457031 -11.71875 29.78125 -11.71875 C 33.113281 -11.71875 35.476562 -12.6875 36.875 -14.625 C 38.269531 -16.5625 38.96875 -19.832031 38.96875 -24.4375 L 38.96875 -46.59375 L 55.046875 -46.59375 L 55.046875 -20.53125 C 55.046875 -12.78125 53.03125 -7.191406 49 -3.765625 C 44.976562 -0.347656 38.578125 1.359375 29.796875 1.359375 C 21.015625 1.359375 14.609375 -0.347656 10.578125 -3.765625 C 6.554688 -7.191406 4.546875 -12.78125 4.546875 -20.53125 L 4.546875 -46.59375 Z M 20.625 -46.59375 "/></g></g></g><g fill="#ff751f" fill-opacity="1"><g transform="translate(157.516117, 82.446188)"><g><path d="M 8.625 -5.765625 C 4.269531 -10.515625 2.09375 -16.34375 2.09375 -23.25 C 2.09375 -30.15625 4.269531 -36 8.625 -40.78125 C 12.988281 -45.5625 18.53125 -47.953125 25.25 -47.953125 C 31.425781 -47.953125 36.515625 -46.015625 40.515625 -42.140625 L 40.515625 -78.109375 L 56.59375 -78.109375 L 56.59375 0 L 40.6875 0 L 40.6875 -5.265625 L 40.515625 -5.265625 C 36.515625 -0.847656 31.425781 1.359375 25.25 1.359375 C 18.53125 1.359375 12.988281 -1.015625 8.625 -5.765625 Z M 22.296875 -31.15625 C 20.210938 -29.09375 19.171875 -26.457031 19.171875 -23.25 C 19.171875 -20.039062 20.164062 -17.421875 22.15625 -15.390625 C 24.15625 -13.367188 26.789062 -12.359375 30.0625 -12.359375 C 33.207031 -12.359375 35.796875 -13.382812 37.828125 -15.4375 C 39.859375 -17.5 40.875 -20.101562 40.875 -23.25 C 40.875 -26.457031 39.828125 -29.09375 37.734375 -31.15625 C 35.648438 -33.21875 33.09375 -34.25 30.0625 -34.25 C 26.976562 -34.25 24.390625 -33.21875 22.296875 -31.15625 Z M 22.296875 -31.15625 "/></g></g></g><g fill="#ff751f" fill-opacity="1"><g transform="translate(219.546986, 82.446188)"><g><path d="M 8.625 -5.765625 C 4.269531 -10.515625 2.09375 -16.34375 2.09375 -23.25 C 2.09375 -30.15625 4.269531 -36 8.625 -40.78125 C 12.988281 -45.5625 18.53125 -47.953125 25.25 -47.953125 C 31.425781 -47.953125 36.515625 -46.015625 40.515625 -42.140625 L 40.515625 -78.109375 L 56.59375 -78.109375 L 56.59375 0 L 40.6875 0 L 40.6875 -5.265625 L 40.515625 -5.265625 C 36.515625 -0.847656 31.425781 1.359375 25.25 1.359375 C 18.53125 1.359375 12.988281 -1.015625 8.625 -5.765625 Z M 22.296875 -31.15625 C 20.210938 -29.09375 19.171875 -26.457031 19.171875 -23.25 C 19.171875 -20.039062 20.164062 -17.421875 22.15625 -15.390625 C 24.15625 -13.367188 26.789062 -12.359375 30.0625 -12.359375 C 33.207031 -12.359375 35.796875 -13.382812 37.828125 -15.4375 C 39.859375 -17.5 40.875 -20.101562 40.875 -23.25 C 40.875 -26.457031 39.828125 -29.09375 37.734375 -31.15625 C 35.648438 -33.21875 33.09375 -34.25 30.0625 -34.25 C 26.976562 -34.25 24.390625 -33.21875 22.296875 -31.15625 Z M 22.296875 -31.15625 "/></g></g></g><g fill="#ff751f" fill-opacity="1"><g transform="translate(281.577855, 82.446188)"><g><path d="M 43.5 -74.9375 L 73.75 0 L 55.40625 0 L 49.859375 -14.984375 L 21.34375 -14.984375 L 15.796875 0 L -2.546875 0 L 27.703125 -74.9375 Z M 44.046875 -29.96875 L 35.703125 -51.765625 L 35.515625 -51.765625 L 27.15625 -29.96875 Z M 44.046875 -29.96875 "/></g></g></g><g fill="#ff751f" fill-opacity="1"><g transform="translate(352.781649, 82.446188)"><g><path d="M 22.53125 -74.9375 L 22.53125 0 L 5.453125 0 L 5.453125 -74.9375 Z M 22.53125 -74.9375 "/></g></g></g></g></g></svg>